******** Tunnel.Rats.2008.DVDRiP.XviD.OPTIONAL-NORDICSUB-Zen_Bud *********

Format                           : AVI
Format profile                   : OpenDML
File size                        : 700 MiB
Duration                         : 1h 32mn
Overall bit rate                 : 1 060 Kbps
Writing application              : AVI-Mux GUI 1.17.8.3

Video

Format                           : MPEG-4 Visual
Codec ID/Hint                    : XviD
Duration                         : 1h 32mn
Bit rate                         : 928 Kbps
Width                            : 720 pixels
Height                           : 576 pixels
Display aspect ratio             : 16:9
Stream size                      : 613 MiB (88%)
Writing library                  : XviD 1.1.2 (UTC 2006-11-01)

Audio

Format                           : MPEG Audio
Codec ID/Hint                    : MP3
Duration                         : 1h 32mn
Bit rate                         : 128 Kbps
Channel(s)                       : 2 channels
Sampling rate                    : 48.0 KHz
Stream size                      : 84.5 MiB (12%)
Language                         : English

Text #1
Language                         : Swedish

Text #2
Language                         : Norwegian

Text #3
Language                         : Danish

Text #4
Language                         : Finnish



During the Vietnam War [1959-1975] a special US combat unit is sent out to hunt and kill the Viet Cong soldiers in a man-to-man combat in the endless tunnels underneath the jungle of Vietnam. Suicide squads of a special kind. 